PathFileType	4	(X/Y/Z)	C:\Users\WrightLab\Desktop\Jo\P5V134.trc
DataRate	CameraRate	NumFrames	NumMarkers	Units	OrigDataRate	OrigDataStartFrame	OrigNumFrames
100.00	100.00	       21	19	mm	100.00	331	       529
Frame#	Time	Headset_Front			Headset_Back			Headset_Left			Headset_Right			Left_Shoulder			Right_Shoulder			Sternum			C7			Left Elbow			Right Elbow			Left Wrist			Right Wrist			Left ASIS			Right ASIS			S2			Left Knee			Right Knee			Left Ankle			Right Ankle			
		X1	Y1	Z1	X2	Y2	Z2	X3	Y3	Z3	X4	Y4	Z4	X5	Y5	Z5	X6	Y6	Z6	X7	Y7	Z7	X8	Y8	Z8	X9	Y9	Z9	X10	Y10	Z10	X11	Y11	Z11	X12	Y12	Z12	X13	Y13	Z13	X14	Y14	Z14	X15	Y15	Z15	X16	Y16	Z16	X17	Y17	Z17	X18	Y18	Z18	X19	Y19	Z19	

331	3.300	-533.66632	1551.90894	1165.38379	-616.39014	1641.84277	1074.34729							-295.48914	1475.70386	992.54834	-676.48724	1523.09363	827.23846	-567.40436	1362.01355	991.56653	-459.73752	1787.66553	969.37714	-222.48856	1210.70239	946.58826	-732.43976	1271.78174	690.63043	-341.62091	1159.10999	1121.21106	-770.31464	1155.90198	896.14197	-500.99930	957.80908	1062.82690	-735.35522	1015.05975	884.32324	-433.50311	992.02875	756.26337	-456.22729	516.78790	992.24731	-814.34137	641.11859	966.39716	-409.90903	118.80034	825.15619	-714.23212	182.87372	793.02405	
332	3.310	-537.48828	1551.23010	1174.59424	-466.44000	1787.24988	977.74951							-300.30295	1477.22644	1000.01099	-684.25128	1522.55505	837.79773	-572.73602	1361.41919	1000.52802	-620.91858	1641.13855	1084.56018	-228.04863	1211.84924	952.50769	-741.32758	1271.71594	700.86871	-346.23785	1158.78210	1127.21448	-777.31635	1155.20325	906.48639	-504.01132	956.27899	1069.14807	-741.59949	1014.35150	894.70459	-441.28156	992.28369	762.16400	-461.25214	515.58795	994.95648	-817.57080	641.50171	979.51318	-410.42950	120.04322	825.63953	-740.45026	174.11165	816.93878	
333	3.320	-540.90753	1550.64490	1183.59717	-473.06204	1786.97241	986.18939							-306.59927	1476.87659	1005.60370	-692.11829	1522.00476	848.41309	-578.18298	1360.49463	1009.66797	-626.10504	1640.74866	1094.88232	-233.84576	1211.37720	956.46210	-750.19995	1271.48962	711.27533	-351.22882	1158.98914	1133.18005	-784.55780	1154.69165	916.93665	-507.45605	955.34259	1076.42078	-747.57568	1013.38184	904.85889	-449.50528	992.07043	767.51093	-466.87656	514.17072	997.61438	-820.94586	641.19006	991.87646	-411.28119	120.23863	825.99957	-766.19257	165.16156	842.45441	
334	3.330	-544.43036	1550.00403	1192.72473	-631.21246	1640.25439	1105.21814							-312.11465	1476.17676	1013.15820	-699.72302	1521.22925	859.08398	-583.70038	1359.91687	1018.79913	-478.66705	1786.50037	994.54663	-240.52676	1211.62280	962.65057	-758.92059	1271.20984	721.68311	-355.01859	1158.76904	1139.14087	-791.58325	1153.85132	927.47021	-510.70010	953.76654	1082.15979	-753.42700	1011.94910	915.37476	-457.43558	991.97125	772.99896	-472.95993	513.68530	1000.83295	-823.20416	639.61285	1003.17804	-412.87589	121.79423	825.77509	-791.32874	157.49571	867.62189	
335	3.340	-547.76288	1549.13757	1201.72144	-484.59579	1785.92615	1003.08289							-317.21564	1476.48218	1016.41302	-707.39185	1520.20459	869.79980	-588.68732	1358.94983	1027.94019	-635.47858	1639.41772	1115.51086	-245.84967	1211.40674	965.95349	-767.73798	1270.66907	732.32385	-359.58600	1158.67664	1144.90613	-798.62231	1153.02051	938.17719	-514.14771	952.79614	1088.80188	-758.44653	1011.22516	925.17206	-465.51187	991.71936	779.88641	-478.49054	513.75653	1003.94104	-825.28162	636.88586	1013.30743	-413.98044	122.20003	825.35547	-815.04370	151.16544	894.86102	
336	3.350	-551.19843	1548.37524	1210.72900	-490.56885	1785.24573	1011.56067							-323.27017	1476.81970	1027.57458	-714.43506	1519.09021	880.44916	-594.56641	1358.30066	1037.31702	-640.20142	1638.77795	1125.97314	-251.96822	1211.37415	971.81427	-776.39099	1269.96179	743.10052	-364.15308	1158.55591	1151.38611	-805.67358	1152.03955	949.16180	-519.18451	951.22308	1093.39343	-764.16156	1009.44653	935.88550	-474.03677	991.43024	784.59589	-482.93161	513.74054	1007.04944	-826.76422	633.30518	1022.25031	-415.05350	123.61713	825.04840	-836.72601	147.17737	920.53033	
337	3.360	-556.39374	1548.33386	1220.24182	-644.83850	1638.17346	1136.38562							-329.48813	1476.75989	1033.13025	-722.75262	1518.44946	891.51532	-599.31616	1357.06445	1046.42615	-496.73795	1784.57886	1020.05615	-258.20233	1212.42590	977.88098	-785.06873	1269.15344	754.12500	-368.40167	1158.40796	1157.64307	-812.66058	1150.83667	960.17981	-522.27765	950.28284	1099.72156	-769.71051	1007.92944	946.66968	-481.74649	990.90485	791.27930	-486.77295	514.64404	1009.62836	-828.15338	628.89526	1030.31067	-415.48151	124.86651	824.90436	-856.81915	143.87323	947.85559	
338	3.370	-559.78815	1547.31421	1229.16199	-503.20920	1783.86841	1028.41492							-335.57880	1475.66785	1036.15100	-730.04828	1517.19934	902.23688	-605.12341	1356.04858	1055.86584	-417.62939	1653.65930	1112.54370	-263.42834	1211.46033	982.04230	-793.56531	1268.27686	765.21967	-372.42361	1157.46753	1163.47900	-819.74066	1149.89160	971.44879	-525.61871	949.39716	1107.42871	-772.67023	1004.86981	955.85809	-489.91541	990.69916	798.63354	-491.25824	515.25421	1013.13251	-828.69562	623.49695	1037.05164	-416.08920	126.95730	825.18225	-874.25098	143.56789	970.19135	
339	3.380	-563.42828	1546.19678	1238.17896	-509.43774	1782.80371	1036.87378							-340.31702	1475.49792	1045.98389	-736.84131	1515.75952	912.84180	-610.39386	1354.80237	1065.08521	-422.63461	1652.70288	1120.52844	-270.21716	1211.29541	987.43286	-801.94537	1267.32605	776.45435	-376.62073	1156.46619	1168.83655	-827.01422	1149.91016	983.42743	-530.49176	947.74280	1112.58521	-779.14667	1004.07800	966.99512	-498.32132	989.83429	803.79022	-494.35352	514.13208	1016.52612	-829.43225	617.62433	1043.29211	-417.60315	128.49719	825.86646	-889.19537	142.56665	996.06390	
340	3.390	-566.60736	1544.84338	1247.09888	-658.05408	1634.86633	1167.15405							-347.19391	1474.24609	1051.70642	-743.52466	1514.34265	923.38403	-615.94519	1353.42053	1074.34778	-515.75128	1781.65662	1045.10291	-273.88702	1211.19458	992.25104	-810.31628	1266.24524	787.84796	-380.49695	1156.46899	1175.03796	-833.33759	1147.49719	994.36816	-534.73920	946.79871	1118.57068	-784.02283	1002.56958	977.42639	-506.15433	990.00232	810.53516	-499.36545	512.94513	1019.56506	-829.30237	608.52844	1047.75159	-418.14267	129.07103	826.03662	-901.02576	141.27876	1020.70850	
341	3.400	-570.02960	1543.64893	1255.93408	-521.84564	1780.15015	1053.36206							-353.88452	1473.34387	1056.53625	-750.98425	1513.33679	934.02795	-622.03436	1352.41052	1083.64600	-432.45325	1649.62463	1134.66431	-281.68268	1210.27454	997.59320	-818.68579	1265.10022	799.33838	-385.57654	1155.39563	1180.81604	-839.85516	1147.47156	1006.58691	-538.47137	945.36481	1125.79480	-789.17072	1001.21210	988.03046	-514.33746	989.11743	817.31305	-502.77893	512.06299	1023.30396	-832.80853	600.45477	1053.53894	-418.72934	131.45235	826.55225	-910.38574	141.31476	1039.36438	
342	3.410	-573.19275	1542.09204	1264.73413	-528.13574	1778.73376	1061.65723							-359.30072	1472.47729	1065.86670	-758.30823	1512.13965	944.54071	-627.87732	1351.19153	1092.87097	-437.62097	1647.89954	1140.38232	-288.12152	1210.36304	1001.35046	-827.05066	1263.80872	810.87854	-388.49835	1154.27429	1187.55750	-845.42078	1145.82751	1018.18341	-544.49561	942.60834	1131.36279	-794.56152	1000.22656	998.72607	-521.85297	988.23132	824.04333	-505.78308	511.31863	1028.86267	-841.04968	593.64276	1060.26184	-419.75079	132.99493	826.83490	-917.18280	139.52440	1058.57935	
343	3.420	-576.20654	1540.37146	1273.51379	-671.33075	1630.77258	1197.74329							-365.49826	1471.14014	1069.22070	-764.32428	1510.49792	954.63159	-633.44427	1349.62964	1102.06409	-533.90417	1776.98267	1069.99707	-293.65060	1209.75488	1008.00354	-835.28088	1262.47571	822.50720	-392.35580	1152.85242	1192.56970	-852.11633	1144.85498	1030.18994	-548.75305	942.52948	1138.81335	-799.36713	998.64331	1009.35828	-529.85675	986.42175	831.59741	-509.60046	509.49847	1032.89209	-850.67383	587.42767	1066.92041	-420.94318	134.58833	828.17834	-922.07410	138.91708	1074.03394	
344	3.430	-579.73822	1538.89197	1282.25830	-540.32373	1775.58044	1078.37354							-370.95047	1470.36597	1078.04175	-771.13684	1509.26135	964.88788	-639.84045	1348.95483	1111.53723	-448.02127	1645.24744	1155.78809	-300.31598	1208.46326	1011.50427	-843.56299	1261.15295	834.26215	-396.16876	1151.52002	1198.42200	-857.63245	1143.37793	1042.04260	-553.73505	940.53430	1146.10181	-805.16809	997.81616	1020.35242	-537.81262	986.02802	839.63531	-513.44336	508.30539	1037.80396	-858.87286	579.08667	1072.54700	-422.11951	136.84924	829.42517	-924.82605	136.04970	1089.13770	
345	3.440	-582.79120	1537.13965	1290.90210	-546.54089	1774.05713	1086.70520							-377.37079	1469.61011	1083.88220	-778.34363	1508.52063	975.22363	-645.56042	1347.91443	1120.91345	-452.09869	1644.18005	1162.20825	-306.13251	1207.97900	1016.34943	-851.64777	1259.87085	846.11865	-399.88016	1151.27380	1204.89954	-863.96765	1142.46313	1054.21741	-558.20782	940.31323	1153.38525	-810.29242	996.43280	1031.15356	-545.30847	983.97858	846.94702	-517.27704	507.85449	1041.81482	-866.75720	570.54346	1078.51587	-423.20300	138.53824	829.58173	-926.90570	133.36584	1101.28381	
346	3.450	-585.82239	1535.21436	1299.52283	-683.95532	1625.67407	1228.02466							-383.57584	1468.80579	1088.38269	-784.64178	1507.32861	985.39502	-651.37891	1346.93079	1130.31421	-457.45038	1642.45789	1168.91846	-312.27509	1208.29663	1022.59174	-859.54163	1258.60339	858.08392	-403.39026	1150.28870	1211.40735	-869.50092	1141.26318	1066.23743	-564.27118	937.26001	1161.16589	-816.14331	995.45282	1042.17395	-553.34265	983.31628	855.30872	-522.31183	506.96268	1048.07837	-873.56354	563.03760	1086.11182	-424.73438	140.93651	831.61639	-927.68115	130.49911	1109.59766	
347	3.460	-589.09052	1533.31030	1308.08545	-688.53381	1623.62146	1237.74121							-388.95306	1468.44604	1096.92395	-790.90430	1506.17163	995.61157	-656.72272	1345.53430	1139.79211	-462.38528	1640.96680	1176.70447	-318.57095	1207.18237	1026.86462	-867.24805	1257.27808	870.10901	-406.88672	1148.67456	1216.91980	-875.27301	1140.34619	1078.41809	-569.37250	937.01733	1170.10840	-821.86401	994.38446	1053.15540	-561.20581	981.39368	863.63489	-527.48169	507.05841	1054.13147	-878.69263	555.96692	1096.23962	-426.32108	143.30893	834.08093	-926.74030	127.43471	1116.11218	
348	3.470	-592.20807	1531.38452	1316.55310	-692.89319	1621.18152	1247.25989							-395.03241	1466.77515	1101.05408	-798.17603	1505.60376	1006.09625	-662.26996	1344.19434	1149.38586	-466.91428	1639.26074	1183.57874	-325.32333	1206.76587	1033.23010	-874.77777	1255.90833	881.99023	-410.51556	1148.05518	1222.71326	-881.01831	1139.62366	1090.59680	-575.41272	935.66791	1177.39685	-827.91498	993.09363	1064.26074	-568.51331	979.95355	872.26160	-533.72723	507.12592	1061.95496	-880.62659	550.33905	1108.16541	-428.63290	146.36205	834.38538	-925.78064	123.04441	1121.69800	
349	3.480	-595.41260	1529.59326	1324.94690	-696.81763	1618.70728	1256.61121							-401.15448	1465.39954	1108.50513	-804.85999	1504.65173	1016.42877	-668.43890	1343.18933	1159.29456				-330.80771	1205.17163	1035.28943	-882.62756	1254.54370	893.89551	-413.68353	1146.71558	1228.66614	-886.36249	1138.76477	1102.77759	-580.76575	934.43866	1185.84802	-833.99316	991.98071	1075.55408	-576.69275	977.54065	881.48944	-540.22986	507.13391	1069.61389	-884.60248	548.80273	1121.26587	-430.66769	149.51390	835.77649	-924.85229	118.75517	1129.85583	
350	3.490	-598.43768	1527.60608	1333.33154	-700.73315	1616.43994	1265.96692							-406.80402	1463.89075	1114.92749	-811.10760	1503.40967	1026.59949	-673.99371	1341.84619	1169.14197	-476.65158	1636.13831	1198.44592	-337.55219	1204.11938	1041.31250	-890.49927	1252.96423	905.67792	-416.68637	1146.25391	1235.14563	-892.06726	1138.14539	1115.06116	-586.69110	933.53699	1194.73853	-840.39136	990.85468	1087.15393	-584.36993	976.08521	891.10748	-548.09943	505.26392	1076.46118	-887.05237	544.95428	1133.44263	-433.53195	152.95905	838.48657	-924.81415	119.63934	1130.88464	
351	3.500	-601.34149	1525.75342	1341.90369	-704.59351	1614.39758	1275.47449							-413.14722	1460.44324	1119.42786	-818.31067	1502.52808	1036.85437	-679.77228	1340.73108	1179.04370	-482.21576	1633.01294	1202.23352	-342.41724	1203.54150	1048.15173	-898.30988	1251.19507	917.37140	-420.50836	1144.73669	1240.71692	-897.15479	1137.15369	1127.26147	-592.80267	932.40222	1203.99390	-846.80292	989.82288	1098.86389	-591.71765	973.72235	900.65704	-556.32220	504.20145	1084.85205	-890.44934	542.31854	1146.30481	-437.28928	157.28984	840.56604	-923.56110	119.25790	1133.88354	
